<svg version="1" xmlns="http://www.w3.org/2000/svg" width="933.333" height="933.333" viewBox="0 0 700.000000 700.000000"><path d="M0 350v350h700V0H0v350zm459.5-228.8c17.5 4.4 27.9 20 30.6 46.3 2.6 24.1-2.7 45.3-14.3 58-6.3 6.9-11.3 9.8-20.6 12-13.1 3.2-26.2.9-35.7-6.3-13.1-9.9-19.2-28.1-18.3-55.2.5-15.1 2.5-23.6 7.9-34.2 2.7-5.4 10.3-13.4 15.5-16.4 9.7-5.7 22.7-7.3 34.9-4.2zm-105.1 2.2c15.8 4.4 25.8 14.6 31.1 31.6 2.6 8.5 3.2 29.6 1.1 39.9-3.5 17.3-11.8 29.1-24.9 35.6-10.6 5.2-18.3 6.5-39.4 6.5H304V120.8l22.3.5c16.3.3 23.8.9 28.1 2.1zm234.6 4.1v6.5h-35v103h-15V134h-35v-13h85v6.5zM342.7 326.8c9 19.1 18.7 40.2 21.6 47 3 6.7 5.7 12.5 6.1 12.9.3.3.6-20.8.6-47V292h14v116.1l-10.1-.3-10.2-.3-15.4-33c-8.5-18.2-18.2-39.3-21.5-47-3.3-7.7-6.4-14.4-6.9-15-.5-.5-.9 18-.9 47.3V408h-14V292h20.5l16.2 34.8zM481 298v6h-51v38h49v12h-49v41h51v13h-66V292h66v6zm109 .5v6.5h-34v103h-16V305h-35v-13h85v6.5zM425.5 465.6c6.8 2.6 14.9 10.7 16.6 16.5 2.1 7.1 1.6 17.6-1.1 23.7-2.8 6.5-10.2 13.4-17.1 16l-5 1.8 3.6 2.5c5.1 3.4 9 9.7 19.9 32.3 5.3 11 9.6 20.1 9.6 20.3 0 .1-3.9.3-8.6.3h-8.5l-2.1-4.8c-1.1-2.6-6-12.9-10.9-22.9-10.6-22-11.8-23.1-24.8-24l-8.1-.6V579h-15V462.8l23.3.4c20 .4 23.9.7 28.2 2.4zm63.5 40.2c0 48.8.2 50.4 6.9 56.5 4.8 4.3 9.3 5.7 18.6 5.7 8.4 0 13.7-2.2 18.2-7.3 6-6.8 6.3-9.5 6.3-55.9V463h15v42.2c0 44.8-.3 47.5-4.9 56.6-7.7 15.1-28.2 22.6-48.9 17.7-8.4-2-13.1-4.5-17.6-9.5-8.6-9.6-9.6-16.4-9.6-67.6V463h16v42.8zm-146 45.8c5.1 2 8.3 7.1 8.3 13 0 7.5-6.1 13.4-13.8 13.4-14.9 0-18.7-20.5-5-26.6 4-1.7 5.7-1.7 10.5.2z"/><path d="M435.5 134.9c-12 5.4-18.4 20.9-18.5 44.4 0 19.2 3.6 32.1 11.2 39.6 9.3 9.4 25.8 9.2 34.6-.3 8.9-9.6 11.7-18.9 11.7-39.1 0-25.3-5.4-38.8-18-44.6-5.3-2.5-15.6-2.5-21 0zM320 179v45h10.3c15.2 0 22.8-2.5 30.3-9.7 8.3-8.1 11.8-20.5 11.1-39.3-.6-15.4-3-23.8-9-30.6-6.9-7.8-14.5-10.4-31.4-10.4H320v45zM389.8 475.6c-.5.4-.8 9.4-.8 20.1V515h9.3c5.7 0 11.5-.6 14.7-1.6 11.8-3.5 17.9-15.5 13.5-26.1-3.7-8.9-9.1-11.5-24.5-12.1-6.3-.2-11.8-.1-12.2.4z"/></svg>