<?xml version="1.0" encoding="utf-8"?>
<!-- Generator: Adobe Illustrator 24.0.2, SVG Export Plug-In . SVG Version: 6.00 Build 0)  -->
<svg version="1.1" id="Слой_1" xmlns="http://www.w3.org/2000/svg" xmlns:xlink="http://www.w3.org/1999/xlink" x="0px" y="0px"
	 viewBox="0 0 850.4 850.4" style="enable-background:new 0 0 850.4 850.4;" xml:space="preserve">
<style type="text/css">
	.st0{fill:#69217A;}
	.st1{display:none;}
	.st2{display:inline;fill:#FFFFFF;}
	.st3{fill:#FFFFFF;}
	.st4{enable-background:new    ;}
</style>
<rect class="st0" width="850.4" height="850.4"/>
<g class="st1">
	<path class="st2" d="M524.6,250.9c0,6.8-1.4,12.7-4.1,17.8c-2.8,5.1-6.6,9.3-11.6,12.7c-4.9,3.4-10.9,5.9-17.8,7.6
		c-6.9,1.7-14.6,2.5-22.9,2.5c-3.8,0-7.5-0.1-11.3-0.4c-3.7-0.3-7.3-0.7-10.8-1.1c-3.5-0.4-6.7-0.9-9.8-1.5
		c-3.1-0.6-5.8-1.2-8.3-1.9v-18.8c5.5,2,11.6,3.6,18.4,4.8c6.8,1.2,14.5,1.7,23.2,1.7c6.3,0,11.6-0.5,16-1.5c4.4-1,8-2.4,10.8-4.4
		c2.8-1.9,4.8-4.3,6.1-7c1.3-2.8,1.9-5.9,1.9-9.5c0-3.9-1.1-7.1-3.2-9.9c-2.1-2.7-5-5.2-8.4-7.3c-3.5-2.1-7.5-4.1-11.9-5.9
		c-4.5-1.8-9-3.6-13.7-5.5c-4.7-1.9-9.2-3.9-13.7-6.2c-4.5-2.2-8.5-4.8-11.9-7.8c-3.5-3-6.3-6.6-8.4-10.6c-2.1-4.1-3.2-8.9-3.2-14.5
		c0-4.9,1-9.7,3.1-14.4c2-4.7,5.2-8.9,9.5-12.6c4.3-3.7,9.8-6.6,16.5-8.9c6.7-2.3,14.7-3.4,24-3.4c2.4,0,5,0.1,7.8,0.3
		c2.8,0.2,5.6,0.5,8.5,0.9c2.9,0.4,5.7,0.9,8.5,1.4c2.8,0.5,5.4,1.1,7.8,1.6v17.4c-5.6-1.6-11.2-2.8-16.8-3.7
		c-5.6-0.8-11-1.3-16.2-1.3c-11.1,0-19.3,1.9-24.5,5.6c-5.2,3.7-7.9,8.7-7.9,14.9c0,3.9,1.1,7.2,3.2,9.9c2.1,2.8,5,5.2,8.4,7.4
		c3.5,2.2,7.5,4.2,11.9,5.9c4.5,1.8,9,3.6,13.7,5.5c4.6,1.9,9.2,4,13.7,6.2c4.5,2.3,8.4,4.9,11.9,8c3.5,3.1,6.3,6.7,8.4,10.8
		C523.5,240.3,524.6,245.2,524.6,250.9z"/>
	<path class="st2" d="M649.4,190.6c0,5.8-1.1,11.6-3.3,17.3c-2.2,5.7-5.6,10.8-10.1,15.3c-4.6,4.5-10.4,8.2-17.6,11
		c-7.1,2.8-15.6,4.2-25.5,4.2h-17.7v51.1h-19.4V147H596c7,0,13.8,0.8,20.3,2.3c6.5,1.6,12.2,4.1,17.1,7.6c4.9,3.5,8.8,8,11.7,13.5
		C647.9,176,649.4,182.7,649.4,190.6z M629.2,191.5c0-9.2-3-16.2-9-21c-6-4.9-14.4-7.3-25.1-7.3h-19.8v58.7h18.1
		c11.5,0,20.3-2.5,26.5-7.5C626.1,209.3,629.2,201.7,629.2,191.5z"/>
	<path class="st2" d="M772.1,246.9c0,6.8-1.3,12.9-4,18.2c-2.7,5.3-6.4,9.7-11.3,13.4c-4.9,3.6-10.8,6.4-17.8,8.3
		c-6.9,1.9-14.7,2.8-23.2,2.8h-37.3V147h40.8c31.8,0,47.6,11.6,47.6,34.7c0,7.7-1.8,14.3-5.5,19.8c-3.7,5.5-9.6,9.6-17.9,12.3
		c3.9,0.7,7.5,2,11,3.7c3.5,1.7,6.5,4,9.1,6.8c2.6,2.8,4.7,6,6.2,9.8C771.4,237.9,772.1,242.2,772.1,246.9z M746.9,184.3
		c0-2.9-0.4-5.6-1.3-8.2c-0.9-2.6-2.4-4.8-4.6-6.6c-2.2-1.9-5.1-3.3-8.8-4.4c-3.7-1.1-8.4-1.6-14.1-1.6H698V208h19.4
		c4.4,0,8.4-0.5,12-1.4c3.6-0.9,6.7-2.4,9.3-4.4c2.6-2,4.6-4.4,6-7.4C746.1,191.9,746.9,188.4,746.9,184.3z M751.5,247.5
		c0-3.6-0.8-6.9-2.3-9.8c-1.5-2.9-3.7-5.4-6.6-7.4c-2.9-2-6.5-3.5-10.6-4.6c-4.2-1.1-8.9-1.6-14.1-1.6H698v49.1h20.5
		c11.1,0,19.4-2.1,24.9-6.2C748.8,262.8,751.5,256.3,751.5,247.5z"/>
</g>
<g>
	<path class="st3" d="M473.7,420.2c0,6.8-0.5,13.4-1.6,19.6c-1.1,6.3-2.7,12.1-5.1,17.4c-2.3,5.4-5.3,10.3-9,14.7
		c-3.7,4.4-8.3,8.2-13.6,11.3c-5.4,3.1-11.6,5.5-18.8,7.3c-7.1,1.7-15.2,2.6-24.3,2.6h-30.5V350.5h36.7c22.2,0,38.8,5.7,49.8,17.2
		C468.2,379.1,473.7,396.6,473.7,420.2z M453.3,421.6c0-10.1-0.9-18.6-2.8-25.6c-1.9-7-4.8-12.6-8.6-16.9c-3.9-4.3-8.7-7.4-14.5-9.3
		c-5.8-1.9-12.6-2.9-20.5-2.9h-16.7v109.3h14.5C437.1,476.2,453.3,458,453.3,421.6z"/>
	<path class="st3" d="M598.4,420.8c0,12.8-1.5,23.8-4.5,33.1c-3,9.3-7.1,17-12.2,23.1c-5.1,6.1-11.1,10.6-18,13.5
		s-14.1,4.4-21.8,4.4c-9.2,0-17.1-1.7-23.9-5c-6.8-3.3-12.4-8.1-16.9-14.3c-4.5-6.2-7.8-13.9-10-22.8c-2.2-9-3.3-19.1-3.3-30.4
		c0-12.6,1.5-23.6,4.5-32.9c3-9.3,7-17,12.2-23.1c5.1-6.1,11.1-10.6,17.9-13.5c6.8-2.9,14.1-4.4,21.7-4.4c9.2,0,17.1,1.7,23.9,5
		c6.8,3.3,12.4,8.1,17,14.3c4.5,6.2,7.9,13.8,10.1,22.7C597.3,399.6,598.4,409.6,598.4,420.8z M578.2,422.2c0-8.4-0.6-16-1.9-22.9
		c-1.3-6.9-3.3-12.9-6.2-17.9c-2.8-5-6.5-8.9-11-11.7c-4.5-2.8-9.9-4.1-16.2-4.1c-6.1,0-11.4,1.5-15.8,4.4c-4.4,2.9-8,6.9-10.8,12
		c-2.8,5.1-4.9,11-6.3,17.8c-1.4,6.8-2.1,14-2.1,21.6c0,8.4,0.7,16.1,2,23.1c1.3,6.9,3.4,12.9,6.2,17.9c2.8,5,6.4,8.9,10.8,11.6
		c4.4,2.8,9.8,4.1,16,4.1c6.1,0,11.4-1.5,15.8-4.4c4.4-2.9,8.1-6.9,11-12c2.9-5.1,5-11,6.4-17.7
		C577.5,437.2,578.2,429.9,578.2,422.2z"/>
	<path class="st3" d="M717.8,367.1h-42.2V493H656V367.1h-42.2v-16.6h104V367.1z"/>
</g>
<g>
	<path class="st3" d="M469.8,699.5h-25.3l-41.5-88.8l-12-28.6v71.8v45.6h-18.1V557h25l39.6,84.2l14.3,32.6v-76.3V557h18.1
		L469.8,699.5L469.8,699.5z"/>
	<path class="st3" d="M585.5,699.5h-81V557h81v16.4h-61.6v44.2h59.2v16.4h-59.2v49.1h61.6V699.5z"/>
	<path class="st3" d="M718.8,573.6h-42.2v125.9H657V573.6h-42.2V557h104V573.6z"/>
</g>
<g class="st4">
	<path class="st3" d="M457.3,290.4H376v-143h81.3v16.4h-61.8v44.3h59.4v16.4h-59.4v49.2h61.8V290.4z"/>
	<path class="st3" d="M591.8,290.4h-24.5l-53.5-70.2v70.2h-19.5v-143h19.5v66.4l52.4-66.4h23.1l-56.5,68L591.8,290.4z"/>
	<path class="st3" d="M711.7,247.6c0,6.9-1.3,12.9-4,18.2c-2.7,5.3-6.5,9.8-11.4,13.4c-4.9,3.6-10.9,6.4-17.8,8.3
		c-7,1.9-14.7,2.8-23.3,2.8h-37.4v-143h40.9c31.9,0,47.8,11.6,47.8,34.8c0,7.7-1.8,14.4-5.5,19.9c-3.7,5.5-9.7,9.7-18,12.4
		c3.9,0.7,7.5,2,11,3.7c3.5,1.8,6.5,4,9.1,6.8c2.6,2.8,4.7,6.1,6.2,9.8C710.9,238.6,711.7,242.9,711.7,247.6z M686.3,184.8
		c0-2.9-0.4-5.7-1.3-8.3c-0.9-2.6-2.4-4.8-4.6-6.7c-2.2-1.9-5.1-3.3-8.9-4.4c-3.7-1.1-8.4-1.6-14.1-1.6h-20.1v44.8h19.5
		c4.4,0,8.5-0.5,12.1-1.4c3.6-0.9,6.7-2.4,9.3-4.4c2.6-2,4.6-4.4,6-7.4S686.3,188.9,686.3,184.8z M691,248.3c0-3.6-0.8-6.9-2.3-9.8
		c-1.5-2.9-3.8-5.4-6.7-7.4c-2.9-2-6.5-3.6-10.7-4.7c-4.2-1.1-8.9-1.6-14.2-1.6h-19.9V274h20.6c11.2,0,19.5-2.1,25-6.2
		C688.2,263.6,691,257.1,691,248.3z"/>
</g>
</svg>
